<svg id="Capa_1" enable-background="new 0 0 512 512" height="512" viewBox="0 0 512 512" width="512" xmlns="http://www.w3.org/2000/svg"><g><path d="m497 240h-173.36l-52.64-52.64v-66.36h75c8.284 0 15-6.716 15-15v-91c0-8.284-6.716-15-15-15h-180c-8.284 0-15 6.716-15 15v91c0 8.284 6.716 15 15 15h75v66.36l-52.64 52.64h-173.36c-8.284 0-15 6.716-15 15v197.385c0 8.284 6.716 15 15 15h136v29.615c0 8.284 6.716 15 15 15h180c8.284 0 15-6.716 15-15v-29.615h136c8.284 0 15-6.716 15-15v-197.385c0-8.284-6.716-15-15-15zm-316-210h150v61h-150zm75 184.786 41.214 41.214-41.214 41.214-41.214-41.214zm-226 222.599v-167.385h156.36l54.64 54.64v66.36h-75c-8.284 0-15 6.716-15 15v31.385zm301 44.615h-150v-61h150zm151-44.615h-121v-31.385c0-8.284-6.716-15-15-15h-75v-66.36l54.64-54.64h156.36z"/></g></svg>